<?xml version="1.0" encoding="UTF-8" standalone="no"?>
<!-- Created with Inkscape (http://www.inkscape.org/) -->

<svg
   xmlns:dc="http://purl.org/dc/elements/1.1/"
   xmlns:cc="http://creativecommons.org/ns#"
   xmlns:rdf="http://www.w3.org/1999/02/22-rdf-syntax-ns#"
   xmlns:svg="http://www.w3.org/2000/svg"
   xmlns="http://www.w3.org/2000/svg"
   xmlns:xlink="http://www.w3.org/1999/xlink"
   xmlns:sodipodi="http://sodipodi.sourceforge.net/DTD/sodipodi-0.dtd"
   xmlns:inkscape="http://www.inkscape.org/namespaces/inkscape"
   width="512"
   height="512"
   id="svg2"
   version="1.1"
   inkscape:version="0.48.2 r9819"
   inkscape:export-filename="/Users/Douglas/Desktop/16.png"
   inkscape:export-xdpi="2.8125"
   inkscape:export-ydpi="2.8125"
   sodipodi:docname="proxymenu icon.svg">
  <defs
     id="defs4">
    <linearGradient
       id="linearGradient3867">
      <stop
         style="stop-color:#ffd300;stop-opacity:1;"
         offset="0"
         id="stop3869" />
      <stop
         id="stop3875"
         offset="0.72916669"
         style="stop-color:#ff7300;stop-opacity:1;" />
      <stop
         style="stop-color:#ff1300;stop-opacity:1;"
         offset="1"
         id="stop3871" />
    </linearGradient>
    <radialGradient
       inkscape:collect="always"
       xlink:href="#linearGradient3867"
       id="radialGradient3873"
       cx="239.5"
       cy="258.5"
       fx="239.5"
       fy="258.5"
       r="216.60864"
       gradientUnits="userSpaceOnUse"
       spreadMethod="pad" />
  </defs>
  <sodipodi:namedview
     id="base"
     pagecolor="#ffffff"
     bordercolor="#666666"
     borderopacity="1.0"
     inkscape:pageopacity="0.0"
     inkscape:pageshadow="2"
     inkscape:zoom="1"
     inkscape:cx="256"
     inkscape:cy="270.90074"
     inkscape:document-units="px"
     inkscape:current-layer="layer1"
     showgrid="false"
     inkscape:window-width="1366"
     inkscape:window-height="651"
     inkscape:window-x="0"
     inkscape:window-y="0"
     inkscape:window-maximized="1" />
  <metadata
     id="metadata7">
    <rdf:RDF>
      <cc:Work
         rdf:about="">
        <dc:format>image/svg+xml</dc:format>
        <dc:type
           rdf:resource="http://purl.org/dc/dcmitype/StillImage" />
        <dc:title></dc:title>
      </cc:Work>
    </rdf:RDF>
  </metadata>
  <g
     inkscape:label="Layer 1"
     inkscape:groupmode="layer"
     id="layer1"
     transform="translate(0,-540.3622)">
    <path
       sodipodi:type="arc"
       style="fill:url(#radialGradient3873);fill-opacity:1;stroke:#ffffff;stroke-width:12.02823532;stroke-miterlimit:4;stroke-opacity:1;stroke-dasharray:none"
       id="path3865"
       sodipodi:cx="239.5"
       sodipodi:cy="258.5"
       sodipodi:rx="212.5"
       sodipodi:ry="212.5"
       d="m 452,258.5 a 212.5,212.5 0 1 1 -425,0 212.5,212.5 0 1 1 425,0 z"
       transform="matrix(0.99765258,0,0,0.99765258,17.062207,538.46901)" />
    <path
       style="fill:#ffffff;stroke:#404040;stroke-width:2.49393105999999998;stroke-miterlimit:4;stroke-opacity:1;stroke-dasharray:none;opacity:1"
       d="m 127.33541,868.37126 c -9.89558,-35.6092 -18.03554,-77.04 -18.08841,-92.06837 -0.0863,-24.49862 120.36521,-136.69372 146.75299,-136.69372 26.38782,0 146.83937,112.1951 146.753,136.69372 -0.0519,15.02837 -8.19282,56.45917 -18.08839,92.06837 -13.3747,48.12842 -27.15471,64.74398 -53.69454,64.74398 -32.29632,0 -34.63589,-7.10683 -24.52402,-74.49374 9.02657,-60.15355 4.9554,-80.12163 -21.14873,-103.73006 -30.43996,-27.52982 -34.03726,-27.34803 -61.62145,3.11221 -22.38623,24.72011 -26.60099,49.18195 -17.8726,103.73005 10.31315,64.45254 7.93228,71.38154 -24.52697,71.38154 -26.82454,0 -40.5154,-16.43274 -53.94088,-64.74398 z"
       id="path3863"
       inkscape:connector-curvature="0" />
    <path
       transform="matrix(0.99765258,0,0,0.99765258,17.062207,538.46901)"
       d="m 452,258.5 a 212.5,212.5 0 1 1 -425,0 212.5,212.5 0 1 1 425,0 z"
       sodipodi:ry="212.5"
       sodipodi:rx="212.5"
       sodipodi:cy="258.5"
       sodipodi:cx="239.5"
       id="path3877"
       style="fill:none;fill-opacity:1;stroke:#000000;stroke-width:1.00235293999999997;stroke-miterlimit:4;stroke-opacity:1;stroke-dasharray:none;opacity:0.74299065"
       sodipodi:type="arc" />
  </g>
</svg>
